<svg width="189" height="52" viewBox="0 0 189 52" fill="none" xmlns="http://www.w3.org/2000/svg">
<g clip-path="url(#clip0_903_3957)" filter="url(#filter0_bd_903_3957)">
<path d="M2 0H16.0268V28.0788C16.0268 30.266 16.3804 31.7438 17.0876 32.4532C17.7948 33.1626 19.1504 33.5172 21.2721 33.5172H21.9793V47.2315H18.2663C13.1389 47.2315 9.19019 45.7537 6.30233 42.7389C3.41446 39.7241 2 35.5862 2 30.266L2 0Z" fill="black"/>
<path d="M26.6942 0H43.8446C53.9815 0 59.05 4.0197 59.05 12C59.05 15.9606 57.3409 19.2709 53.8637 21.931C58.9322 24.1182 61.4075 28.0197 61.4075 33.6946C61.4075 38.0099 59.9341 41.4384 56.9283 44.0394C55.4549 45.2808 53.9226 46.1084 52.2724 46.5813C50.6222 47.0542 48.3826 47.2906 45.5537 47.2906H42.9016V35.1133H45.259C46.6735 35.1133 47.6754 34.936 48.2058 34.5813C48.7362 34.2266 49.0899 33.5764 49.0899 32.6897C49.0899 31.1527 47.9111 30.3842 45.5537 30.3842H42.8426V17.7931C45.4358 17.7931 46.7324 16.9064 46.7324 15.133C46.7324 13.4778 45.5537 12.6502 43.2552 12.6502H40.662V47.2906H26.6353V0H26.6942Z" fill="black"/>
<path d="M82.4476 12C87.3393 12 91.5237 13.7734 95.001 17.2611C98.4782 20.7488 100.246 25.0049 100.246 29.9113C100.246 34.8177 98.4782 39.133 94.942 42.6798C91.4059 46.2266 87.1625 47.9409 82.1529 47.9409C77.1434 47.9409 72.9 46.1675 69.3638 42.6798C65.8277 39.1921 64.0596 34.936 64.0596 29.9704C64.0596 25.0049 65.8277 20.6305 69.3638 17.202C72.9 13.7734 77.2612 12 82.5065 12H82.4476ZM82.094 24.7685C80.7385 24.7685 79.5597 25.2414 78.5578 26.2463C77.5559 27.2512 77.0844 28.4926 77.0844 29.9113C77.0844 31.33 77.5559 32.5714 78.5578 33.5764C79.5597 34.5813 80.6795 35.1133 82.035 35.1133C83.3906 35.1133 84.5693 34.5813 85.5712 33.5764C86.5731 32.5714 87.0446 31.33 87.0446 29.9113C87.0446 28.4926 86.5731 27.2512 85.5712 26.2463C84.5693 25.2414 83.3906 24.7685 82.035 24.7685H82.094Z" fill="black"/>
<path d="M121.935 12C126.826 12 131.011 13.7734 134.488 17.2611C137.965 20.7488 139.733 25.0049 139.733 29.9113C139.733 34.8177 137.965 39.133 134.429 42.6798C130.893 46.2266 126.65 47.9409 121.64 47.9409C116.63 47.9409 112.387 46.1675 108.851 42.6798C105.315 39.1921 103.547 34.936 103.547 29.9704C103.547 25.0049 105.315 20.6305 108.851 17.202C112.387 13.7734 116.748 12 121.994 12H121.935ZM121.581 24.7685C120.226 24.7685 119.047 25.2414 118.045 26.2463C117.043 27.2512 116.571 28.4926 116.571 29.9113C116.571 31.33 117.043 32.5714 118.045 33.5764C119.047 34.5813 120.167 35.1133 121.522 35.1133C122.878 35.1133 124.056 34.5813 125.058 33.5764C126.06 32.5714 126.532 31.33 126.532 29.9113C126.532 28.4926 126.06 27.2512 125.058 26.2463C124.056 25.2414 122.878 24.7685 121.522 24.7685H121.581Z" fill="black"/>
<path d="M160.066 0V47.2906H146.04V0H160.066ZM186.941 0L174.506 21.4581L186.882 47.2906H171.146L160.479 21.1626L172.561 0H186.941Z" fill="black"/>
</g>
<defs>
<filter id="filter0_bd_903_3957" x="-2" y="-4" width="193" height="56" filterUnits="userSpaceOnUse" color-interpolation-filters="sRGB">
<feFlood flood-opacity="0" result="BackgroundImageFix"/>
<feGaussianBlur in="BackgroundImageFix" stdDeviation="2"/>
<feComposite in2="SourceAlpha" operator="in" result="effect1_backgroundBlur_903_3957"/>
<feColorMatrix in="SourceAlpha" type="matrix" values="0 0 0 0 0 0 0 0 0 0 0 0 0 0 0 0 0 0 127 0" result="hardAlpha"/>
<feOffset dy="2"/>
<feGaussianBlur stdDeviation="1"/>
<feComposite in2="hardAlpha" operator="out"/>
<feColorMatrix type="matrix" values="0 0 0 0 0 0 0 0 0 0 0 0 0 0 0 0 0 0 0.25 0"/>
<feBlend mode="normal" in2="effect1_backgroundBlur_903_3957" result="effect2_dropShadow_903_3957"/>
<feBlend mode="normal" in="SourceGraphic" in2="effect2_dropShadow_903_3957" result="shape"/>
</filter>
<clipPath id="clip0_903_3957">
<rect width="185" height="48" fill="white" transform="translate(2)"/>
</clipPath>
</defs>
</svg>
